<svg width="30" height="30" viewBox="0 0 30 30" fill="none" xmlns="http://www.w3.org/2000/svg">
<path d="M8.75 8.75C8.75 6.67894 10.4289 5 12.5 5H18.125C20.1961 5 21.875 6.67894 21.875 8.75V10H8.75V8.75Z" stroke="#333333" stroke-width="2" stroke-linecap="round" stroke-linejoin="round"/>
<path d="M2.5 15.625L14.6968 18.6742C14.8959 18.724 15.1041 18.724 15.3032 18.6742L27.5 15.625V23.75C27.5 24.4404 26.9404 25 26.25 25H3.75C3.05964 25 2.5 24.4404 2.5 23.75V15.625Z" stroke="#333333" stroke-width="2" stroke-linecap="round" stroke-linejoin="round"/>
<path d="M27.5 16.875V11.25C27.5 10.5596 26.9404 10 26.25 10H3.75C3.05964 10 2.5 10.5596 2.5 11.25V16.875" stroke="#333333" stroke-width="2" stroke-linecap="round" stroke-linejoin="round"/>
<path d="M16.5625 14.375C16.5625 15.2379 15.8629 15.9375 15 15.9375C14.1371 15.9375 13.4375 15.2379 13.4375 14.375C13.4375 13.5121 14.1371 12.8125 15 12.8125C15.8629 12.8125 16.5625 13.5121 16.5625 14.375Z" fill="#333333"/>
</svg>
