<svg width="30" height="30" viewBox="0 0 30 30" fill="none" xmlns="http://www.w3.org/2000/svg">
<path d="M22.0711 20.8211C20.8152 22.077 18.0891 24.803 16.4126 26.4795C15.6316 27.2605 14.368 27.2601 13.5869 26.4791C11.9387 24.8308 9.26912 22.1613 7.92893 20.8211C4.02369 16.9158 4.02369 10.5842 7.92893 6.67893C11.8342 2.77369 18.1658 2.77369 22.0711 6.67893C25.9763 10.5842 25.9763 16.9158 22.0711 20.8211Z" stroke="#21272A" stroke-width="2" stroke-linecap="round" stroke-linejoin="round"/>
<path d="M18.75 13.75C18.75 15.8211 17.0711 17.5 15 17.5C12.9289 17.5 11.25 15.8211 11.25 13.75C11.25 11.6789 12.9289 10 15 10C17.0711 10 18.75 11.6789 18.75 13.75Z" stroke="#21272A" stroke-width="2" stroke-linecap="round" stroke-linejoin="round"/>
</svg>
