<svg width="61" height="51" viewBox="0 0 61 51" fill="none" xmlns="http://www.w3.org/2000/svg">
<path d="M3 0.5H58C59.3807 0.5 60.5 1.61929 60.5 3V48C60.5 49.3807 59.3807 50.5 58 50.5H3C1.61929 50.5 0.5 49.3807 0.5 48V3C0.5 1.61929 1.61929 0.5 3 0.5Z" fill="white" stroke="#B7BBC0"/>
<path d="M28.3711 22.6667M28.3711 22.6667M35.1843 26.0667H35.6843V25.8997L35.5841 25.7663L35.1843 26.0667ZM32.4165 22.3833L32.8162 22.083L32.4165 21.551L32.0167 22.083L32.4165 22.3833ZM29.0098 26.9167L28.6101 27.217L29.0098 27.749L29.4095 27.217L29.0098 26.9167ZM27.9453 25.5L28.345 25.1996L27.9453 24.6677L27.5455 25.1996L27.9453 25.5ZM25.8161 28.3333L25.4164 28.033L25.3161 28.1664V28.3333H25.8161ZM25.8161 30.0333H25.3161V30.5333H25.8161V30.0333ZM35.1843 30.0333V30.5333H35.6843V30.0333H35.1843ZM28.3711 22.6667H28.8711C28.8711 22.0994 28.6988 21.5666 28.3965 21.1644C28.0942 20.762 27.6386 20.4667 27.0936 20.4667V20.9667V21.4667C27.2539 21.4667 27.437 21.5521 27.5971 21.7651C27.7573 21.9783 27.8711 22.2955 27.8711 22.6667H28.3711ZM27.0936 20.9667V20.4667C26.5486 20.4667 26.093 20.762 25.7907 21.1644C25.4884 21.5666 25.3161 22.0994 25.3161 22.6667H25.8161H26.3161C26.3161 22.2955 26.4299 21.9783 26.5901 21.7651C26.7502 21.5521 26.9333 21.4667 27.0936 21.4667V20.9667ZM25.8161 22.6667H25.3161C25.3161 23.234 25.4884 23.7668 25.7907 24.169C26.093 24.5714 26.5486 24.8667 27.0936 24.8667V24.3667V23.8667C26.9333 23.8667 26.7502 23.7813 26.5901 23.5683C26.4299 23.3551 26.3161 23.0379 26.3161 22.6667H25.8161ZM27.0936 24.3667V24.8667C27.6386 24.8667 28.0942 24.5714 28.3965 24.169C28.6988 23.7668 28.8711 23.234 28.8711 22.6667H28.3711H27.8711C27.8711 23.0379 27.7573 23.3551 27.5971 23.5683C27.437 23.7813 27.2539 23.8667 27.0936 23.8667V24.3667ZM28.3711 22.6667M35.1843 26.0667L35.5841 25.7663L32.8162 22.083L32.4165 22.3833L32.0167 22.6837L34.7846 26.367L35.1843 26.0667ZM32.4165 22.3833L32.0167 22.083L28.6101 26.6163L29.0098 26.9167L29.4095 27.217L32.8162 22.6837L32.4165 22.3833ZM29.0098 26.9167L29.4095 26.6163L28.345 25.1996L27.9453 25.5L27.5455 25.8004L28.6101 27.217L29.0098 26.9167ZM27.9453 25.5L27.5455 25.1996L25.4164 28.033L25.8161 28.3333L26.2158 28.6337L28.345 25.8004L27.9453 25.5ZM25.8161 28.3333H25.3161V30.0333H25.8161H26.3161V28.3333H25.8161ZM25.8161 30.0333V30.5333H35.1843V30.0333V29.5333H25.8161V30.0333ZM35.1843 30.0333H35.6843V26.0667H35.1843H34.6843V30.0333H35.1843ZM36.8877 20.1167H37.3877C37.3877 19.6282 37.2382 19.1664 36.9747 18.8158C36.7114 18.4655 36.3094 18.2 35.8231 18.2V18.7V19.2C35.9223 19.2 36.0526 19.2533 36.1752 19.4165C36.2976 19.5794 36.3877 19.826 36.3877 20.1167H36.8877ZM35.8231 18.7V18.2H25.1774V18.7V19.2H35.8231V18.7ZM25.1774 18.7V18.2C24.6911 18.2 24.289 18.4655 24.0258 18.8158C23.7623 19.1664 23.6128 19.6282 23.6128 20.1167H24.1128H24.6128C24.6128 19.826 24.7028 19.5794 24.8252 19.4165C24.9479 19.2533 25.0781 19.2 25.1774 19.2V18.7ZM24.1128 20.1167H23.6128V30.8833H24.1128H24.6128V20.1167H24.1128ZM24.1128 30.8833H23.6128C23.6128 31.3718 23.7623 31.8336 24.0258 32.1842C24.289 32.5345 24.6911 32.8 25.1774 32.8V32.3V31.8C25.0781 31.8 24.9479 31.7467 24.8252 31.5835C24.7028 31.4206 24.6128 31.174 24.6128 30.8833H24.1128ZM25.1774 32.3V32.8H35.8231V32.3V31.8H25.1774V32.3ZM35.8231 32.3V32.8C36.3094 32.8 36.7114 32.5345 36.9747 32.1842C37.2382 31.8336 37.3877 31.3718 37.3877 30.8833H36.8877H36.3877C36.3877 31.174 36.2976 31.4206 36.1752 31.5835C36.0526 31.7467 35.9223 31.8 35.8231 31.8V32.3ZM36.8877 30.8833H37.3877V20.1167H36.8877H36.3877V30.8833H36.8877Z" fill="#BBBDBF"/>
</svg>
