<svg width="30" height="30" viewBox="0 0 30 30" fill="none" xmlns="http://www.w3.org/2000/svg">
<path d="M6.83757 13.4375C5.95007 13.4375 5.05007 13.1125 4.36257 12.45C2.06257 10.2625 1.13757 7.875 1.67507 5.5375C2.31257 2.7875 4.72507 1.5625 6.83757 1.5625C8.95007 1.5625 11.3751 2.8 12.0001 5.5375C12.5376 7.875 11.6001 10.2625 9.31257 12.45C8.62507 13.1125 7.73757 13.4375 6.83757 13.4375ZM3.50007 5.9625C3.02507 8.05 4.41257 9.9 5.66257 11.0875C6.32507 11.725 7.36257 11.7125 8.02507 11.0875C9.27507 9.9 10.6626 8.05 10.1751 5.95C9.75007 4.1 8.11257 3.4375 6.85007 3.4375C5.57507 3.4375 3.93757 4.1 3.50007 5.9625Z" fill="#292D32"/>
<path d="M6.8877 7.75C6.2002 7.75 5.6377 7.1875 5.6377 6.5C5.6377 5.8125 6.1877 5.25 6.8877 5.25H6.9002C7.5877 5.25 8.1502 5.8125 8.1502 6.5C8.1502 7.1875 7.5877 7.75 6.8877 7.75Z" fill="#292D32"/>
<path d="M23.1127 28.4378C22.2252 28.4378 21.3252 28.1128 20.6252 27.4503C18.3127 25.2628 17.3752 22.8753 17.9252 20.5253C18.5627 17.7878 20.9877 16.5503 23.1127 16.5503C25.2377 16.5503 27.6627 17.7878 28.3002 20.5253C28.8377 22.8628 27.9002 25.2628 25.5877 27.4378C24.9002 28.1128 24.0127 28.4378 23.1127 28.4378ZM23.1127 18.4378C21.8377 18.4378 20.1877 19.1003 19.7502 20.9628C19.2627 23.0503 20.6627 24.9128 21.9127 26.1003C22.5752 26.7378 23.6252 26.7378 24.3002 26.1003C25.5502 24.9128 26.9502 23.0628 26.4627 20.9753C26.0502 19.1003 24.4002 18.4378 23.1127 18.4378Z" fill="#292D32"/>
<path d="M23.1626 22.75C22.4751 22.75 21.9126 22.1875 21.9126 21.5C21.9126 20.8125 22.4626 20.25 23.1626 20.25H23.1751C23.8626 20.25 24.4251 20.8125 24.4251 21.5C24.4251 22.1875 23.8501 22.75 23.1626 22.75Z" fill="#292D32"/>
<path d="M14.9998 24.6875H11.6498C10.1998 24.6875 8.9373 23.8125 8.4373 22.4625C7.9248 21.1125 8.2998 19.625 9.3873 18.6625L19.3748 9.925C19.9748 9.4 19.9873 8.6875 19.8123 8.2C19.6248 7.7125 19.1498 7.1875 18.3498 7.1875H14.9998C14.4873 7.1875 14.0623 6.7625 14.0623 6.25C14.0623 5.7375 14.4873 5.3125 14.9998 5.3125H18.3498C19.7998 5.3125 21.0623 6.1875 21.5623 7.5375C22.0748 8.8875 21.6998 10.375 20.6123 11.3375L10.6248 20.075C10.0248 20.6 10.0123 21.3125 10.1873 21.8C10.3748 22.2875 10.8498 22.8125 11.6498 22.8125H14.9998C15.5123 22.8125 15.9373 23.2375 15.9373 23.75C15.9373 24.2625 15.5123 24.6875 14.9998 24.6875Z" fill="#292D32"/>
<path d="M14.9998 24.6875H11.6498C10.1998 24.6875 8.9373 23.8125 8.4373 22.4625C7.9248 21.1125 8.2998 19.625 9.3873 18.6625L19.3748 9.925C19.9748 9.4 19.9873 8.6875 19.8123 8.2C19.6248 7.7125 19.1498 7.1875 18.3498 7.1875H14.9998C14.4873 7.1875 14.0623 6.7625 14.0623 6.25C14.0623 5.7375 14.4873 5.3125 14.9998 5.3125H18.3498C19.7998 5.3125 21.0623 6.1875 21.5623 7.5375C22.0748 8.8875 21.6998 10.375 20.6123 11.3375L10.6248 20.075C10.0248 20.6 10.0123 21.3125 10.1873 21.8C10.3748 22.2875 10.8498 22.8125 11.6498 22.8125H14.9998C15.5123 22.8125 15.9373 23.2375 15.9373 23.75C15.9373 24.2625 15.5123 24.6875 14.9998 24.6875Z" fill="#292D32"/>
</svg>
