<svg width="30" height="30" viewBox="0 0 30 30" fill="none" xmlns="http://www.w3.org/2000/svg">
<path d="M6.83757 13.4375C5.95007 13.4375 5.05007 13.1125 4.36257 12.45C2.06257 10.2625 1.13757 7.875 1.67507 5.5375C2.31257 2.7875 4.72507 1.5625 6.83757 1.5625C8.95007 1.5625 11.3751 2.8 12.0001 5.5375C12.5376 7.875 11.6001 10.2625 9.31257 12.45C8.62507 13.1125 7.73757 13.4375 6.83757 13.4375ZM3.50007 5.9625C3.02507 8.05 4.41257 9.9 5.66257 11.0875C6.32507 11.725 7.36257 11.7125 8.02507 11.0875C9.27507 9.9 10.6626 8.05 10.1751 5.95C9.75007 4.1 8.11257 3.4375 6.85007 3.4375C5.57507 3.4375 3.93757 4.1 3.50007 5.9625Z" fill="#292D32"/>
<path d="M6.88745 7.75C6.19995 7.75 5.63745 7.1875 5.63745 6.5C5.63745 5.8125 6.18745 5.25 6.88745 5.25H6.89995C7.58745 5.25 8.14995 5.8125 8.14995 6.5C8.14995 7.1875 7.58745 7.75 6.88745 7.75Z" fill="#292D32"/>
<path d="M23.1125 28.4378C22.225 28.4378 21.325 28.1128 20.625 27.4503C18.3125 25.2628 17.375 22.8753 17.925 20.5253C18.5625 17.7878 20.9875 16.5503 23.1125 16.5503C25.2375 16.5503 27.6625 17.7878 28.3 20.5253C28.8375 22.8628 27.9 25.2628 25.5875 27.4378C24.9 28.1128 24.0125 28.4378 23.1125 28.4378ZM23.1125 18.4378C21.8375 18.4378 20.1875 19.1003 19.75 20.9628C19.2625 23.0503 20.6625 24.9128 21.9125 26.1003C22.575 26.7378 23.625 26.7378 24.3 26.1003C25.55 24.9128 26.95 23.0628 26.4625 20.9753C26.05 19.1003 24.4 18.4378 23.1125 18.4378Z" fill="#292D32"/>
<path d="M23.1626 22.75C22.4751 22.75 21.9126 22.1875 21.9126 21.5C21.9126 20.8125 22.4626 20.25 23.1626 20.25H23.1751C23.8626 20.25 24.4251 20.8125 24.4251 21.5C24.4251 22.1875 23.8501 22.75 23.1626 22.75Z" fill="#292D32"/>
<path d="M15 24.6875H11.65C10.2 24.6875 8.93755 23.8125 8.43755 22.4625C7.92505 21.1125 8.30005 19.625 9.38755 18.6625L19.375 9.925C19.975 9.4 19.9875 8.6875 19.8125 8.2C19.625 7.7125 19.15 7.1875 18.35 7.1875H15C14.4875 7.1875 14.0625 6.7625 14.0625 6.25C14.0625 5.7375 14.4875 5.3125 15 5.3125H18.35C19.8 5.3125 21.0625 6.1875 21.5625 7.5375C22.075 8.8875 21.7 10.375 20.6125 11.3375L10.625 20.075C10.025 20.6 10.0125 21.3125 10.1875 21.8C10.375 22.2875 10.85 22.8125 11.65 22.8125H15C15.5125 22.8125 15.9375 23.2375 15.9375 23.75C15.9375 24.2625 15.5125 24.6875 15 24.6875Z" fill="#292D32"/>
<path d="M15 24.6875H11.65C10.2 24.6875 8.93755 23.8125 8.43755 22.4625C7.92505 21.1125 8.30005 19.625 9.38755 18.6625L19.375 9.925C19.975 9.4 19.9875 8.6875 19.8125 8.2C19.625 7.7125 19.15 7.1875 18.35 7.1875H15C14.4875 7.1875 14.0625 6.7625 14.0625 6.25C14.0625 5.7375 14.4875 5.3125 15 5.3125H18.35C19.8 5.3125 21.0625 6.1875 21.5625 7.5375C22.075 8.8875 21.7 10.375 20.6125 11.3375L10.625 20.075C10.025 20.6 10.0125 21.3125 10.1875 21.8C10.375 22.2875 10.85 22.8125 11.65 22.8125H15C15.5125 22.8125 15.9375 23.2375 15.9375 23.75C15.9375 24.2625 15.5125 24.6875 15 24.6875Z" fill="#292D32"/>
</svg>
