<svg width="30" height="30" viewBox="0 0 30 30" fill="none" xmlns="http://www.w3.org/2000/svg">
<path d="M17.7751 27.0375C16.3001 27.0375 14.2126 26 12.5626 21.0375L11.6626 18.3375L8.9626 17.4375C4.0126 15.7875 2.9751 13.7 2.9751 12.225C2.9751 10.7625 4.0126 8.66253 8.9626 7.00003L19.5751 3.46253C22.2251 2.57503 24.4376 2.83753 25.8001 4.18753C27.1626 5.53753 27.4251 7.76253 26.5376 10.4125L23.0001 21.025C21.3376 26 19.2501 27.0375 17.7751 27.0375ZM9.5501 8.78753C6.0751 9.95003 4.8376 11.325 4.8376 12.225C4.8376 13.125 6.0751 14.5 9.5501 15.65L12.7001 16.7C12.9751 16.7875 13.2001 17.0125 13.2876 17.2875L14.3376 20.4375C15.4876 23.9125 16.8751 25.15 17.7751 25.15C18.6751 25.15 20.0501 23.9125 21.2126 20.4375L24.7501 9.82503C25.3876 7.90003 25.2751 6.32503 24.4626 5.51253C23.6501 4.70003 22.0751 4.60003 20.1626 5.23753L9.5501 8.78753Z" fill="#292D32"/>
<path d="M12.6375 18C12.4 18 12.1625 17.9125 11.975 17.725C11.6125 17.3625 11.6125 16.7625 11.975 16.4L16.45 11.9125C16.8125 11.55 17.4125 11.55 17.775 11.9125C18.1375 12.275 18.1375 12.875 17.775 13.2375L13.3 17.725C13.125 17.9125 12.875 18 12.6375 18Z" fill="#292D32"/>
</svg>
