<svg width="30" height="30" viewBox="0 0 30 30" fill="none" xmlns="http://www.w3.org/2000/svg">
<path d="M15 26.5625H8.75C4.1875 26.5625 1.5625 23.9375 1.5625 19.375V10.625C1.5625 6.0625 4.1875 3.4375 8.75 3.4375H21.25C25.8125 3.4375 28.4375 6.0625 28.4375 10.625V14.375C28.4375 14.8875 28.0125 15.3125 27.5 15.3125C26.9875 15.3125 26.5625 14.8875 26.5625 14.375V10.625C26.5625 7.05 24.825 5.3125 21.25 5.3125H8.75C5.175 5.3125 3.4375 7.05 3.4375 10.625V19.375C3.4375 22.95 5.175 24.6875 8.75 24.6875H15C15.5125 24.6875 15.9375 25.1125 15.9375 25.625C15.9375 26.1375 15.5125 26.5625 15 26.5625Z" fill="#292D32"/>
<path d="M14.9997 16.0875C13.9497 16.0875 12.8872 15.7624 12.0747 15.0999L8.16222 11.9749C7.76222 11.6499 7.68723 11.0625 8.01223 10.6625C8.33723 10.2625 8.92471 10.2 9.32471 10.5125L13.2372 13.6375C14.1872 14.4 15.7997 14.4 16.7497 13.6375L20.6622 10.5125C21.0622 10.1875 21.6497 10.25 21.9747 10.6625C22.2997 11.0625 22.2372 11.6624 21.8247 11.9749L17.9122 15.0999C17.1122 15.7624 16.0497 16.0875 14.9997 16.0875Z" fill="#292D32"/>
<path d="M19.7749 27.225C19.2999 27.225 18.8499 27.05 18.5249 26.725C18.1374 26.3375 17.9624 25.775 18.0499 25.1875L18.2874 23.5C18.3499 23.0625 18.6125 22.5375 18.925 22.225L23.3499 17.8C23.9499 17.2 24.5375 16.8875 25.175 16.825C25.95 16.75 26.7249 17.075 27.4499 17.8C28.1749 18.525 28.4999 19.2875 28.4249 20.075C28.3624 20.7 28.0374 21.3 27.4499 21.9L23.025 26.325C22.7125 26.6375 22.1874 26.9 21.7499 26.9625L20.0624 27.2C19.9624 27.2125 19.8749 27.225 19.7749 27.225ZM25.3874 18.6875C25.3749 18.6875 25.3624 18.6875 25.3499 18.6875C25.1749 18.7 24.9374 18.8625 24.6749 19.125L20.25 23.55C20.2125 23.5875 20.1499 23.7125 20.1499 23.7625L19.9249 25.325L21.4874 25.1C21.5374 25.0875 21.6624 25.025 21.6999 24.9875L26.1249 20.5625C26.3874 20.2875 26.5499 20.0625 26.5624 19.8875C26.5874 19.6375 26.3374 19.3375 26.1249 19.125C25.9249 18.925 25.6374 18.6875 25.3874 18.6875Z" fill="#292D32"/>
<path d="M26.1502 22.8124C26.0627 22.8124 25.9752 22.7999 25.9002 22.7749C24.2502 22.3124 22.9377 20.9999 22.4752 19.3499C22.3377 18.8499 22.6252 18.3374 23.1252 18.1874C23.6252 18.0499 24.1377 18.3374 24.2752 18.8374C24.5627 19.8624 25.3752 20.6749 26.4002 20.9624C26.9002 21.0999 27.1877 21.6249 27.0502 22.1249C26.9377 22.5374 26.5627 22.8124 26.1502 22.8124Z" fill="#292D32"/>
</svg>
